<svg width="24" height="24" viewBox="0 0 24 24" fill="none" xmlns="http://www.w3.org/2000/svg">
<g clip-path="url(#clip0_144_1171)">
<path d="M23.6328 11.8241C23.6292 14.6443 22.598 17.3659 20.7334 19.4762C18.8687 21.5865 16.2995 22.9398 13.5095 23.2812C13.4473 23.2883 13.3844 23.282 13.3249 23.2629C13.2653 23.2438 13.2105 23.2122 13.164 23.1703C13.1175 23.1284 13.0804 23.077 13.0551 23.0196C13.0299 22.9622 13.017 22.9001 13.0174 22.8374V14.487H15.6713C15.7925 14.4872 15.9126 14.4625 16.0239 14.4142C16.1352 14.366 16.2355 14.2953 16.3184 14.2066C16.4014 14.1178 16.4653 14.0129 16.5061 13.8983C16.547 13.7837 16.5639 13.6619 16.5559 13.5405C16.5363 13.3123 16.4314 13.0999 16.2621 12.9461C16.0929 12.7924 15.8719 12.7086 15.6436 12.7117H13.0174V10.0488C13.0174 9.57796 13.2038 9.12642 13.5356 8.79349C13.8674 8.46056 14.3174 8.27352 14.7866 8.27352H16.5559C16.6771 8.27379 16.7972 8.24904 16.9085 8.2008C17.0198 8.15256 17.1201 8.08186 17.2031 7.99311C17.286 7.90435 17.3499 7.79943 17.3908 7.68485C17.4316 7.57028 17.4485 7.4485 17.4405 7.32708C17.4209 7.09844 17.3157 6.88576 17.146 6.73193C16.9762 6.57811 16.7547 6.4946 16.526 6.49825H14.7866C13.8482 6.49825 12.9482 6.87233 12.2846 7.53818C11.621 8.20404 11.2482 9.10713 11.2482 10.0488V12.7117H8.59432C8.47305 12.7114 8.35302 12.7362 8.24168 12.7844C8.13035 12.8327 8.03009 12.9034 7.94713 12.9921C7.86417 13.0809 7.80029 13.1858 7.75944 13.3004C7.7186 13.4149 7.70167 13.5367 7.7097 13.6581C7.72927 13.8868 7.83453 14.0995 8.00424 14.2533C8.17396 14.4071 8.3955 14.4906 8.62417 14.487H11.2482V22.8396C11.2485 22.9023 11.2357 22.9643 11.2105 23.0215C11.1853 23.0788 11.1483 23.1301 11.1019 23.1721C11.0555 23.214 11.0009 23.2456 10.9414 23.2648C10.882 23.284 10.8192 23.2903 10.7572 23.2834C7.89254 22.9334 5.26325 21.5169 3.38975 19.3145C1.51626 17.112 0.535105 14.284 0.640503 11.3902C0.861657 5.39869 5.6983 0.527795 11.6739 0.29479C13.221 0.23466 14.7642 0.48824 16.2114 1.04036C17.6585 1.59249 18.9799 2.43181 20.0963 3.50814C21.2127 4.58446 22.1013 5.87567 22.709 7.30453C23.3166 8.73339 23.6308 10.2706 23.6328 11.8241Z" fill="black"/>
</g>
<defs>
<clipPath id="clip0_144_1171">
<rect width="24" height="24" fill="white"/>
</clipPath>
</defs>
</svg>
