<svg width="24" height="24" viewBox="0 0 24 24" fill="none" xmlns="http://www.w3.org/2000/svg">
<path d="M17.1436 0.754883H6.52825C4.88648 0.756563 3.31246 1.38114 2.15156 2.49157C0.99066 3.602 0.337694 5.10758 0.335938 6.67796V16.8318C0.337694 18.4022 0.99066 19.9078 2.15156 21.0182C3.31246 22.1286 4.88648 22.7532 6.52825 22.7549H17.1436C18.7854 22.7532 20.3594 22.1286 21.5203 21.0182C22.6812 19.9078 23.3342 18.4022 23.3359 16.8318V6.67796C23.3342 5.10758 22.6812 3.602 21.5203 2.49157C20.3594 1.38114 18.7854 0.756563 17.1436 0.754883ZM11.8359 16.8318C10.7862 16.8318 9.75999 16.534 8.88714 15.9762C8.0143 15.4183 7.334 14.6254 6.93227 13.6977C6.53054 12.7701 6.42543 11.7493 6.63023 10.7644C6.83503 9.7796 7.34054 8.87498 8.08283 8.16496C8.82513 7.45494 9.77087 6.97141 10.8005 6.77551C11.83 6.57962 12.8973 6.68016 13.8671 7.06442C14.837 7.44868 15.6659 8.0994 16.2491 8.9343C16.8323 9.76919 17.1436 10.7508 17.1436 11.7549C17.1422 13.1009 16.5825 14.3915 15.5874 15.3433C14.5924 16.2951 13.2432 16.8304 11.8359 16.8318ZM18.4706 6.67796C18.2081 6.67796 17.9516 6.60352 17.7334 6.46406C17.5151 6.32459 17.3451 6.12636 17.2446 5.89444C17.1442 5.66252 17.1179 5.40732 17.1691 5.16111C17.2203 4.91491 17.3467 4.68875 17.5323 4.51125C17.7179 4.33374 17.9543 4.21286 18.2117 4.16389C18.4691 4.11491 18.7359 4.14005 18.9783 4.23611C19.2208 4.33218 19.428 4.49486 19.5738 4.70358C19.7197 4.91231 19.7975 5.1577 19.7975 5.40873C19.7975 5.74535 19.6577 6.06818 19.4088 6.30621C19.16 6.54424 18.8225 6.67796 18.4706 6.67796ZM15.3744 11.7549C15.3744 12.4243 15.1669 13.0787 14.7781 13.6353C14.3892 14.1919 13.8366 14.6257 13.19 14.8819C12.5435 15.138 11.832 15.2051 11.1456 15.0745C10.4592 14.9439 9.82873 14.6215 9.33387 14.1482C8.839 13.6748 8.502 13.0717 8.36547 12.4152C8.22893 11.7586 8.29901 11.0781 8.56682 10.4596C8.83464 9.84119 9.28818 9.31258 9.87008 8.94068C10.452 8.56877 11.1361 8.37027 11.8359 8.37027C12.7744 8.37027 13.6744 8.72686 14.338 9.3616C15.0016 9.99634 15.3744 10.8572 15.3744 11.7549Z" fill="black"/>
</svg>
