<svg width="24" height="24" viewBox="0 0 24 24" fill="none" xmlns="http://www.w3.org/2000/svg">
<g clip-path="url(#clip0_144_1175)">
<path d="M21.3675 0.501953H1.90595C1.43672 0.501953 0.986709 0.688354 0.654914 1.02015C0.323119 1.35194 0.136719 1.80195 0.136719 2.27118V21.7327C0.136719 22.202 0.323119 22.652 0.654914 22.9838C0.986709 23.3156 1.43672 23.502 1.90595 23.502H21.3675C21.8367 23.502 22.2867 23.3156 22.6185 22.9838C22.9503 22.652 23.1367 22.202 23.1367 21.7327V2.27118C23.1367 1.80195 22.9503 1.35194 22.6185 1.02015C22.2867 0.688354 21.8367 0.501953 21.3675 0.501953ZM8.09826 17.3096C8.09826 17.5443 8.00506 17.7693 7.83916 17.9352C7.67326 18.1011 7.44826 18.1943 7.21364 18.1943C6.97903 18.1943 6.75402 18.1011 6.58812 17.9352C6.42223 17.7693 6.32903 17.5443 6.32903 17.3096V10.2327C6.32903 9.99811 6.42223 9.7731 6.58812 9.6072C6.75402 9.44131 6.97903 9.34811 7.21364 9.34811C7.44826 9.34811 7.67326 9.44131 7.83916 9.6072C8.00506 9.7731 8.09826 9.99811 8.09826 10.2327V17.3096ZM7.21364 8.46349C6.9512 8.46349 6.69465 8.38567 6.47644 8.23986C6.25823 8.09406 6.08816 7.88682 5.98772 7.64436C5.88729 7.4019 5.86102 7.1351 5.91221 6.8777C5.96341 6.6203 6.08979 6.38387 6.27537 6.19829C6.46094 6.01272 6.69737 5.88634 6.95477 5.83514C7.21217 5.78394 7.47897 5.81022 7.72143 5.91065C7.9639 6.01108 8.17113 6.18116 8.31694 6.39937C8.46274 6.61758 8.54056 6.87413 8.54056 7.13657C8.54056 7.48849 8.40076 7.826 8.15192 8.07484C7.90307 8.32369 7.56556 8.46349 7.21364 8.46349ZM17.829 17.3096C17.829 17.5443 17.7358 17.7693 17.5699 17.9352C17.404 18.1011 17.179 18.1943 16.9444 18.1943C16.7098 18.1943 16.4848 18.1011 16.3189 17.9352C16.153 17.7693 16.0598 17.5443 16.0598 17.3096V13.3289C16.0598 12.7423 15.8268 12.1798 15.4121 11.7651C14.9973 11.3503 14.4348 11.1173 13.8483 11.1173C13.2617 11.1173 12.6992 11.3503 12.2845 11.7651C11.8697 12.1798 11.6367 12.7423 11.6367 13.3289V17.3096C11.6367 17.5443 11.5435 17.7693 11.3776 17.9352C11.2117 18.1011 10.9867 18.1943 10.7521 18.1943C10.5175 18.1943 10.2925 18.1011 10.1266 17.9352C9.96069 17.7693 9.86749 17.5443 9.86749 17.3096V10.2327C9.86859 10.016 9.94917 9.8073 10.094 9.64609C10.2388 9.48489 10.4377 9.38243 10.653 9.35816C10.8683 9.33388 11.0851 9.38948 11.2621 9.51441C11.4392 9.63933 11.5642 9.8249 11.6135 10.0359C12.2119 9.62994 12.9096 9.39466 13.6317 9.35532C14.3537 9.31597 15.0729 9.47406 15.7119 9.8126C16.3509 10.1511 16.8856 10.6573 17.2586 11.2768C17.6316 11.8963 17.8288 12.6057 17.829 13.3289V17.3096Z" fill="black"/>
</g>
<defs>
<clipPath id="clip0_144_1175">
<rect width="24" height="24" fill="white"/>
</clipPath>
</defs>
</svg>
