<svg width="1483" height="379" viewBox="0 0 1483 379" fill="none" xmlns="http://www.w3.org/2000/svg">
<path d="M691.575 188.422C691.575 233.286 673.883 275.928 644.184 301.203C622.016 320.057 592.699 330.234 559.241 330.234C479.89 330.234 426.908 272.525 426.908 186.153C426.908 99.7814 480.288 42.0724 558.829 42.0724C637.37 42.0724 691.559 99.7814 691.559 188.422H691.575ZM461.863 186.153C461.863 254.055 500.591 299.303 559.241 299.303C617.892 299.303 656.62 254.071 656.62 187.655C656.62 117.883 618.258 73.0038 558.844 73.0038C499.43 73.0038 461.863 118.236 461.863 186.153Z" fill="white"/>
<path d="M749.974 126.988V149.367C749.974 152.386 753.855 153.582 755.55 151.083C771.302 127.923 785.555 118.236 803.736 118.236C806.822 118.236 809.388 118.497 813.101 119.002C814.613 119.202 815.759 120.504 815.759 122.037V148.324C815.759 150.01 814.399 151.39 812.719 151.39C771.622 151.313 752.969 172.558 752.602 218.939V318.478C752.602 320.164 751.227 321.543 749.546 321.543H724.064C722.383 321.543 721.008 320.164 721.008 318.478V126.988C721.008 125.302 722.383 123.923 724.064 123.923H746.919C748.599 123.923 749.974 125.302 749.974 126.988Z" fill="white"/>
<path d="M863.918 86.201H838.466C836.785 86.201 835.41 84.8215 835.41 83.1355V49.6597C835.41 47.9736 836.785 46.5941 838.466 46.5941H863.918C865.599 46.5941 866.974 47.9736 866.974 49.6597V83.1508C866.974 84.8369 865.599 86.2164 863.918 86.2164V86.201ZM863.918 321.559H838.832C837.152 321.559 835.777 320.179 835.777 318.493V126.988C835.777 125.302 837.152 123.923 838.832 123.923H863.918C865.599 123.923 866.974 125.302 866.974 126.988V318.493C866.974 320.179 865.599 321.559 863.918 321.559Z" fill="white"/>
<path d="M1085.03 324.44C1085.03 325.85 1084.05 327.092 1082.69 327.414C1073.88 329.59 1069.87 330.203 1063.6 330.203C1045.2 330.203 1035.45 323.091 1032.11 306.599C1031.63 304.3 1028.88 303.349 1027.11 304.882C1006.58 322.601 987.621 330.203 964.353 330.203C924.494 330.203 899.699 307.595 899.699 271.759C899.699 246.115 911.356 228.764 934.287 218.939C946.31 214.05 953.078 212.548 997.444 206.907C1023 203.504 1029.77 198.584 1030.14 185.004V176.711C1030.14 157.858 1014.74 147.282 986.154 147.282C957.57 147.282 943.622 157.429 940.26 179.777C940.031 181.264 938.748 182.352 937.251 182.352H911.554C909.797 182.352 908.392 180.85 908.499 179.087C909.553 161.476 913.387 150.853 921.866 141.258C935.433 126.544 958.349 118.221 987.285 118.221C1035.81 118.221 1061.36 137.074 1061.36 172.19V288.343C1061.36 298.168 1067.37 303.824 1078.26 303.824C1079.38 303.824 1080.35 303.824 1081.64 303.671C1083.44 303.456 1085.03 304.897 1085.03 306.721V324.44ZM1030.14 228.565C1030.14 226.373 1027.92 224.917 1025.91 225.745C1017.34 229.27 1008.58 230.926 979.783 234.803C945.928 239.724 932.393 250.285 932.393 271.008C932.393 291.731 946.692 302.705 971.121 302.705C989.546 302.705 1004.98 296.651 1017.75 284.987C1027.14 276.296 1030.15 269.873 1030.15 259.343V228.565H1030.14Z" fill="white"/>
<path d="M1138.16 126.988V147.144C1138.16 150.102 1141.92 151.344 1143.68 148.953C1159.52 127.325 1177.34 118.236 1203.58 118.236C1241.58 118.236 1266.01 139.373 1266.01 172.205V318.493C1266.01 320.179 1264.63 321.559 1262.95 321.559H1237.87C1236.19 321.559 1234.81 320.179 1234.81 318.493V184.636C1234.81 160.862 1219.01 145.78 1194.19 145.78C1161.86 145.78 1140.79 172.19 1140.79 212.548V318.478C1140.79 320.164 1139.42 321.543 1137.74 321.543H1112.28C1110.6 321.543 1109.23 320.164 1109.23 318.478V126.988C1109.23 125.302 1110.6 123.923 1112.28 123.923H1135.11C1136.79 123.923 1138.16 125.302 1138.16 126.988Z" fill="white"/>
<path d="M1483 324.44C1483 325.85 1482.02 327.092 1480.66 327.414C1471.83 329.59 1467.81 330.203 1461.57 330.203C1443.17 330.203 1433.43 323.091 1430.08 306.599C1429.61 304.3 1426.86 303.349 1425.08 304.882C1404.55 322.601 1385.59 330.203 1362.32 330.203C1322.46 330.203 1297.67 307.595 1297.67 271.759C1297.67 246.115 1309.33 228.764 1332.26 218.939C1344.28 214.05 1351.05 212.548 1395.41 206.907C1420.97 203.504 1427.74 198.584 1428.11 185.004V176.711C1428.11 157.858 1412.71 147.282 1384.16 147.282C1355.6 147.282 1341.59 157.429 1338.23 179.777C1338 181.264 1336.72 182.352 1335.22 182.352H1309.52C1307.77 182.352 1306.36 180.85 1306.47 179.087C1307.52 161.476 1311.36 150.853 1319.84 141.258C1333.4 126.544 1356.32 118.221 1385.26 118.221C1433.78 118.221 1459.34 137.074 1459.34 172.19V288.343C1459.34 298.168 1465.34 303.824 1476.23 303.824C1477.35 303.824 1478.33 303.824 1479.61 303.671C1481.41 303.456 1483 304.897 1483 306.721V324.44ZM1428.11 228.565C1428.11 226.373 1425.89 224.917 1423.88 225.745C1415.31 229.27 1406.55 230.926 1377.75 234.803C1343.9 239.724 1330.36 250.285 1330.36 271.008C1330.36 291.731 1344.66 302.705 1369.09 302.705C1387.52 302.705 1402.95 296.651 1415.72 284.987C1425.11 276.296 1428.12 269.873 1428.12 259.343V228.565H1428.11Z" fill="white"/>
<path d="M137.656 171.312C134.857 171.312 132.039 170.697 129.41 169.449C122.549 166.187 118.242 159.199 118.402 151.588L121.333 8.60597C121.437 3.75543 125.433 -0.0928466 130.267 0.00170568L151.274 0.436646C156.109 0.540654 159.944 4.54967 159.85 9.40021L157.805 109.323L246.355 33.4827C250.03 30.3341 255.562 30.769 258.701 34.4566L272.347 50.4926C275.485 54.1802 275.052 59.7304 271.376 62.879L150.181 166.679C146.618 169.723 142.17 171.302 137.675 171.302L137.656 171.312Z" fill="white"/>
<path d="M20.3699 277.361L14.6023 257.089C13.2735 252.428 15.9688 247.558 20.6149 246.225L113.274 219.675L3.23668 130.021C-0.514151 126.967 -1.08903 121.426 1.96441 117.663L15.2148 101.296C18.2589 97.5324 23.7814 96.9556 27.5323 100.019L166.275 213.075C171.845 217.614 174.446 224.894 173.004 231.957C171.562 239.02 166.332 244.684 159.424 246.66L31.2077 283.403C26.5616 284.736 21.7081 282.032 20.3887 277.371L20.3699 277.361Z" fill="white"/>
<path d="M279.754 321.99C275.418 324.136 270.169 322.349 268.03 318L191.816 162.991C188.622 156.505 189.319 148.77 193.607 142.955C197.895 137.14 205.057 134.209 212.182 135.372L354.082 158.452C358.851 159.228 362.102 163.738 361.32 168.532L357.956 189.343C357.183 194.127 352.688 197.389 347.909 196.604L242.905 179.519L302.588 300.905C304.728 305.254 302.947 310.521 298.611 312.667L279.763 321.99H279.754Z" fill="white"/>
<path d="M182.299 237.777L124.167 353.791C121.995 358.125 123.736 363.405 128.056 365.584L146.833 375.055C151.153 377.234 156.416 375.486 158.588 371.152L216.72 255.139C218.892 250.804 217.15 245.524 212.83 243.345L194.053 233.875C189.733 231.696 184.47 233.443 182.299 237.777Z" fill="white"/>
</svg>
