<svg width="1483" height="378" viewBox="0 0 1483 378" fill="none" xmlns="http://www.w3.org/2000/svg">
<path d="M691.575 187.925C691.575 232.671 673.883 275.2 644.184 300.409C622.016 319.212 592.699 329.363 559.241 329.363C479.89 329.363 426.908 271.806 426.908 185.662C426.908 99.5182 480.288 41.9614 558.829 41.9614C637.37 41.9614 691.559 99.5182 691.559 187.925H691.575ZM461.863 185.662C461.863 253.385 500.591 298.513 559.241 298.513C617.892 298.513 656.62 253.4 656.62 187.16C656.62 117.572 618.258 72.8112 558.844 72.8112C499.43 72.8112 461.863 117.924 461.863 185.662Z" fill="#1A1A1D"/>
<path d="M749.974 126.653V148.973C749.974 151.984 753.855 153.177 755.55 150.685C771.302 127.586 785.555 117.924 803.736 117.924C806.822 117.924 809.388 118.184 813.101 118.688C814.613 118.887 815.759 120.187 815.759 121.715V147.933C815.759 149.615 814.399 150.991 812.719 150.991C771.622 150.914 752.969 172.102 752.602 218.362V317.637C752.602 319.319 751.227 320.695 749.546 320.695H724.064C722.383 320.695 721.008 319.319 721.008 317.637V126.653C721.008 124.972 722.383 123.596 724.064 123.596H746.919C748.599 123.596 749.974 124.972 749.974 126.653Z" fill="#1A1A1D"/>
<path d="M863.918 85.9736H838.466C836.785 85.9736 835.41 84.5978 835.41 82.9161V49.5287C835.41 47.847 836.785 46.4712 838.466 46.4712H863.918C865.599 46.4712 866.974 47.847 866.974 49.5287V82.9314C866.974 84.613 865.599 85.9889 863.918 85.9889V85.9736ZM863.918 320.71H838.832C837.152 320.71 835.777 319.334 835.777 317.653V126.653C835.777 124.972 837.152 123.596 838.832 123.596H863.918C865.599 123.596 866.974 124.972 866.974 126.653V317.653C866.974 319.334 865.599 320.71 863.918 320.71Z" fill="#1A1A1D"/>
<path d="M1085.03 323.584C1085.03 324.991 1084.05 326.229 1082.69 326.55C1073.88 328.721 1069.87 329.332 1063.6 329.332C1045.2 329.332 1035.45 322.239 1032.11 305.79C1031.63 303.497 1028.88 302.549 1027.11 304.078C1006.58 321.75 987.621 329.332 964.353 329.332C924.494 329.332 899.699 306.783 899.699 271.042C899.699 245.466 911.356 228.161 934.287 218.362C946.31 213.485 953.078 211.987 997.444 206.361C1023 202.967 1029.77 198.06 1030.14 184.516V176.245C1030.14 157.442 1014.74 146.893 986.154 146.893C957.57 146.893 943.622 157.014 940.26 179.303C940.031 180.785 938.748 181.871 937.251 181.871H911.554C909.797 181.871 908.392 180.373 908.499 178.615C909.553 161.049 913.387 150.455 921.866 140.886C935.433 126.21 958.349 117.909 987.285 117.909C1035.81 117.909 1061.36 136.712 1061.36 171.735V287.583C1061.36 297.382 1067.37 303.023 1078.26 303.023C1079.38 303.023 1080.35 303.023 1081.64 302.87C1083.44 302.656 1085.03 304.093 1085.03 305.912V323.584ZM1030.14 227.962C1030.14 225.776 1027.92 224.324 1025.91 225.149C1017.34 228.665 1008.58 230.316 979.783 234.184C945.928 239.091 932.393 249.624 932.393 270.293C932.393 290.961 946.692 301.907 971.121 301.907C989.546 301.907 1004.98 295.868 1017.75 284.235C1027.14 275.567 1030.15 269.161 1030.15 258.659V227.962H1030.14Z" fill="#1A1A1D"/>
<path d="M1138.16 126.653V146.756C1138.16 149.706 1141.92 150.945 1143.68 148.56C1159.52 126.989 1177.34 117.924 1203.58 117.924C1241.58 117.924 1266.01 139.005 1266.01 171.751V317.653C1266.01 319.334 1264.63 320.71 1262.95 320.71H1237.87C1236.19 320.71 1234.81 319.334 1234.81 317.653V184.149C1234.81 160.438 1219.01 145.395 1194.19 145.395C1161.86 145.395 1140.79 171.735 1140.79 211.987V317.637C1140.79 319.319 1139.42 320.695 1137.74 320.695H1112.28C1110.6 320.695 1109.23 319.319 1109.23 317.637V126.653C1109.23 124.972 1110.6 123.596 1112.28 123.596H1135.11C1136.79 123.596 1138.16 124.972 1138.16 126.653Z" fill="#1A1A1D"/>
<path d="M1483 323.584C1483 324.991 1482.02 326.229 1480.66 326.55C1471.83 328.721 1467.81 329.332 1461.57 329.332C1443.17 329.332 1433.43 322.239 1430.08 305.79C1429.61 303.497 1426.86 302.549 1425.08 304.078C1404.55 321.75 1385.59 329.332 1362.32 329.332C1322.46 329.332 1297.67 306.783 1297.67 271.042C1297.67 245.466 1309.33 228.161 1332.26 218.362C1344.28 213.485 1351.05 211.987 1395.41 206.361C1420.97 202.967 1427.74 198.06 1428.11 184.516V176.245C1428.11 157.442 1412.71 146.893 1384.16 146.893C1355.6 146.893 1341.59 157.014 1338.23 179.303C1338 180.785 1336.72 181.871 1335.22 181.871H1309.52C1307.77 181.871 1306.36 180.373 1306.47 178.615C1307.52 161.049 1311.36 150.455 1319.84 140.886C1333.4 126.21 1356.32 117.909 1385.26 117.909C1433.78 117.909 1459.34 136.712 1459.34 171.735V287.583C1459.34 297.382 1465.34 303.023 1476.23 303.023C1477.35 303.023 1478.33 303.023 1479.61 302.87C1481.41 302.656 1483 304.093 1483 305.912V323.584ZM1428.11 227.962C1428.11 225.776 1425.89 224.324 1423.88 225.149C1415.31 228.665 1406.55 230.316 1377.75 234.184C1343.9 239.091 1330.36 249.624 1330.36 270.293C1330.36 290.961 1344.66 301.907 1369.09 301.907C1387.52 301.907 1402.95 295.868 1415.72 284.235C1425.11 275.567 1428.12 269.161 1428.12 258.659V227.962H1428.11Z" fill="#1A1A1D"/>
<path d="M137.656 170.86C134.857 170.86 132.039 170.247 129.41 169.002C122.549 165.748 118.242 158.779 118.402 151.188L121.333 8.58326C121.437 3.74552 125.433 -0.0926017 130.267 0.00170118L151.274 0.435494C156.109 0.539227 159.944 4.53767 159.85 9.3754L157.805 109.035L246.355 33.3943C250.03 30.2541 255.562 30.6878 258.701 34.3657L272.347 50.3594C275.485 54.0372 275.052 59.5728 271.376 62.7131L150.181 166.239C146.618 169.275 142.17 170.85 137.675 170.85L137.656 170.86Z" fill="#1A1A1D"/>
<path d="M20.3699 276.629L14.6023 256.411C13.2735 251.762 15.9688 246.905 20.6149 245.576L113.274 219.095L3.23668 129.677C-0.514151 126.631 -1.08903 121.105 1.96441 117.352L15.2148 101.028C18.2589 97.2749 23.7814 96.6997 27.5323 99.7551L166.275 212.513C171.845 217.04 174.446 224.301 173.004 231.345C171.562 238.39 166.332 244.038 159.424 246.009L31.2077 282.655C26.5616 283.985 21.7081 281.288 20.3887 276.639L20.3699 276.629Z" fill="#1A1A1D"/>
<path d="M279.754 321.14C275.418 323.281 270.169 321.499 268.03 317.161L191.816 162.561C188.622 156.092 189.319 148.378 193.607 142.578C197.895 136.778 205.057 133.855 212.182 135.015L354.082 158.034C358.851 158.808 362.102 163.306 361.32 168.087L357.956 188.843C357.183 193.615 352.688 196.868 347.909 196.085L242.905 179.045L302.588 300.111C304.728 304.449 302.947 309.702 298.611 311.842L279.763 321.14H279.754Z" fill="#1A1A1D"/>
<path d="M182.299 237.15L124.167 352.857C121.995 357.18 123.736 362.446 128.056 364.619L146.833 374.065C151.153 376.238 156.416 374.496 158.588 370.173L216.72 254.466C218.892 250.143 217.15 244.877 212.83 242.703L194.053 233.258C189.733 231.084 184.47 232.827 182.299 237.15Z" fill="#1A1A1D"/>
</svg>
