<svg width="164" height="40" viewBox="0 0 164 40" fill="none" xmlns="http://www.w3.org/2000/svg">
<path d="M48.0756 28.2462H59.7361V24.734H52.22V11.5048H48.0756V28.2462Z" fill="#999999"/>
<path d="M66.6446 25.9043C64.9822 25.9043 64.1159 24.4526 64.1159 22.2751C64.1159 20.0975 64.9822 18.6224 66.6446 18.6224C68.3071 18.6224 69.1968 20.0975 69.1968 22.2751C69.1968 24.4526 68.3071 25.9043 66.6446 25.9043ZM66.6681 28.6204C70.5315 28.6204 73.0602 25.8809 73.0602 22.2751C73.0602 18.6692 70.5315 15.9297 66.6681 15.9297C62.8281 15.9297 60.2524 18.6692 60.2524 22.2751C60.2524 25.8809 62.8281 28.6204 66.6681 28.6204Z" fill="#999999"/>
<path d="M79.7474 32.3902C81.527 32.3902 83.0957 31.9921 84.1494 31.0555C85.1094 30.1892 85.7416 28.878 85.7416 27.075V16.2575H82.0889V17.5453H82.0421C81.3397 16.5384 80.2626 15.9062 78.6704 15.9062C75.6967 15.9062 73.6362 18.3882 73.6362 21.9004C73.6362 25.5765 76.1416 27.5902 78.8343 27.5902C80.286 27.5902 81.1992 27.0048 81.9016 26.2087H81.9953V27.4028C81.9953 28.8545 81.3162 29.6975 79.7006 29.6975C78.4362 29.6975 77.804 29.1589 77.5933 28.5267H73.8938C74.2684 31.0321 76.446 32.3902 79.7474 32.3902ZM79.724 24.757C78.2957 24.757 77.3592 23.5862 77.3592 21.7833C77.3592 19.957 78.2957 18.7862 79.724 18.7862C81.3162 18.7862 82.1592 20.1443 82.1592 21.7599C82.1592 23.4458 81.3865 24.757 79.724 24.757Z" fill="#999999"/>
<path d="M93.2523 25.9043C91.5899 25.9043 90.7235 24.4526 90.7235 22.2751C90.7235 20.0975 91.5899 18.6224 93.2523 18.6224C94.9147 18.6224 95.8045 20.0975 95.8045 22.2751C95.8045 24.4526 94.9147 25.9043 93.2523 25.9043ZM93.2757 28.6204C97.1391 28.6204 99.6674 25.8809 99.6674 22.2751C99.6674 18.6692 97.1391 15.9297 93.2757 15.9297C89.4357 15.9297 86.8601 18.6692 86.8601 22.2751C86.8601 25.8809 89.4357 28.6204 93.2757 28.6204Z" fill="#999999"/>
<path d="M100.782 28.2462H104.599V16.2579H100.782V28.2462ZM100.782 14.5955H104.599V11.5048H100.782V14.5955Z" fill="#999999"/>
<path d="M106.255 32.2028H110.071V27.0048H110.118C110.867 28.0116 111.968 28.6204 113.513 28.6204C116.651 28.6204 118.735 26.1384 118.735 22.2516C118.735 18.6458 116.791 15.9062 113.607 15.9062C111.968 15.9062 110.797 16.6321 109.978 17.7092H109.907V16.2575H106.255V32.2028ZM112.53 25.6702C110.891 25.6702 109.954 24.3355 109.954 22.3921C109.954 20.4487 110.797 18.9736 112.46 18.9736C114.099 18.9736 114.871 20.3316 114.871 22.3921C114.871 24.4292 113.981 25.6702 112.53 25.6702Z" fill="#999999"/>
<path d="M124.948 28.6204C128.086 28.6204 130.404 27.2623 130.404 24.6399C130.404 21.5726 127.922 21.0341 125.815 20.6828C124.293 20.4019 122.935 20.2848 122.935 19.4419C122.935 18.6926 123.661 18.3414 124.597 18.3414C125.651 18.3414 126.377 18.6692 126.517 19.7463H130.029C129.842 17.3814 128.016 15.9062 124.621 15.9062C121.787 15.9062 119.446 17.2175 119.446 19.7463C119.446 22.556 121.67 23.118 123.754 23.4692C125.346 23.7502 126.798 23.8672 126.798 24.9443C126.798 25.717 126.072 26.1384 124.925 26.1384C123.661 26.1384 122.865 25.5531 122.724 24.3589H119.118C119.235 27.0048 121.436 28.6204 124.948 28.6204Z" fill="#999999"/>
<path d="M135.588 28.5974C137.251 28.5974 138.304 27.9418 139.171 26.7711H139.241V28.2462H142.894V16.2579H139.077V22.9545C139.077 24.3828 138.281 25.3662 136.97 25.3662C135.752 25.3662 135.167 24.6404 135.167 23.3292V16.2579H131.374V24.1253C131.374 26.7945 132.825 28.5974 135.588 28.5974Z" fill="#999999"/>
<path d="M144.554 28.2458H148.371V21.5258C148.371 20.0975 149.073 19.0906 150.267 19.0906C151.415 19.0906 151.953 19.8399 151.953 21.1277V28.2458H155.77V21.5258C155.77 20.0975 156.449 19.0906 157.666 19.0906C158.814 19.0906 159.352 19.8399 159.352 21.1277V28.2458H163.169V20.4487C163.169 17.756 161.811 15.9062 159.095 15.9062C157.549 15.9062 156.262 16.5619 155.325 18.0136H155.278C154.669 16.7258 153.475 15.9062 151.906 15.9062C150.174 15.9062 149.026 16.7258 148.277 17.9667H148.207V16.2575H144.554V28.2458Z" fill="#999999"/>
<path d="M24.7901 1.92867L20.9531 0.900513L17.7195 12.9684L14.8002 2.07343L10.963 3.10158L14.1172 14.8728L6.26093 7.01659L3.45196 9.82556L12.0693 18.4429L1.33778 15.5674L0.309631 19.4045L12.0351 22.5463C11.9009 21.9673 11.8298 21.364 11.8298 20.7441C11.8298 16.3562 15.3869 12.7991 19.7748 12.7991C24.1627 12.7991 27.7198 16.3562 27.7198 20.7441C27.7198 21.36 27.6496 21.9596 27.5171 22.5352L38.1734 25.3905L39.2015 21.5535L27.4294 18.3991L38.1615 15.5234L37.1334 11.6863L25.3617 14.8405L33.2179 6.98434L30.409 4.17537L21.9112 12.6732L24.7901 1.92867Z" fill="#999999"/>
<path d="M27.5066 22.58C27.1777 23.9708 26.4831 25.2202 25.5302 26.2213L33.2502 33.9414L36.0591 31.1324L27.5066 22.58Z" fill="#999999"/>
<path d="M25.452 26.3018C24.4875 27.2868 23.2687 28.022 21.9019 28.4008L24.711 38.8847L28.5481 37.8565L25.452 26.3018Z" fill="#999999"/>
<path d="M21.7586 28.4394C21.1245 28.6024 20.4598 28.6891 19.7748 28.6891C19.041 28.6891 18.3303 28.5896 17.6557 28.4033L14.844 38.8968L18.6811 39.9249L21.7586 28.4394Z" fill="#999999"/>
<path d="M17.5201 28.3645C16.1742 27.9669 14.977 27.2224 14.0322 26.2345L6.29321 33.9735L9.10218 36.7825L17.5201 28.3645Z" fill="#999999"/>
<path d="M13.9676 26.1666C13.039 25.1725 12.3626 23.9397 12.0407 22.5703L1.34961 25.435L2.37776 29.2721L13.9676 26.1666Z" fill="#999999"/>
</svg>
