<svg width="1262" height="372" viewBox="0 0 1262 372" fill="none" xmlns="http://www.w3.org/2000/svg">
<g clip-path="url(#clip0_4532_7653)">
<path d="M136.156 170.469C133.388 170.469 130.6 169.864 128 168.635C121.213 165.423 116.953 158.544 117.112 151.051L120.011 10.286C120.113 5.51067 124.066 1.72207 128.848 1.81516L149.626 2.24335C154.409 2.34575 158.203 6.2926 158.109 11.0679L156.087 109.441L243.675 34.7769C247.311 31.6772 252.783 32.1054 255.887 35.7357L269.385 51.5231C272.489 55.1535 272.06 60.6176 268.425 63.7174L148.545 165.907C145.021 168.905 140.621 170.459 136.175 170.459L136.156 170.469Z" fill="#1A1A1D"/>
<path d="M20.1457 274.874L14.4407 254.916C13.1263 250.327 15.7923 245.533 20.388 244.221L112.041 218.082L3.19843 129.818C-0.511689 126.811 -1.08033 121.356 1.93997 117.651L15.0466 101.538C18.0576 97.8334 23.5202 97.2655 27.2303 100.282L164.467 211.585C169.977 216.053 172.55 223.22 171.123 230.174C169.697 237.127 164.523 242.703 157.69 244.649L30.8659 280.822C26.2702 282.135 21.4694 279.472 20.1643 274.883L20.1457 274.874Z" fill="#1A1A1D"/>
<path d="M276.711 318.81C272.423 320.924 267.23 319.164 265.114 314.882L189.728 162.277C186.568 155.891 187.258 148.277 191.499 142.552C195.741 136.827 202.825 133.941 209.873 135.086L350.233 157.809C354.949 158.572 358.166 163.012 357.392 167.732L354.064 188.22C353.299 192.93 348.853 196.142 344.127 195.369L240.262 178.548L299.298 298.052C301.414 302.334 299.652 307.519 295.364 309.632L276.72 318.81H276.711Z" fill="#1A1A1D"/>
<path d="M180.317 235.904L122.816 350.118C120.668 354.385 122.39 359.583 126.664 361.728L145.237 371.052C149.51 373.197 154.715 371.477 156.864 367.21L214.364 252.996C216.513 248.729 214.79 243.531 210.517 241.385L191.944 232.062C187.671 229.916 182.465 231.637 180.317 235.904Z" fill="#1A1A1D"/>
<path d="M551.185 88.8785C551.185 116.125 540.391 142.021 522.269 157.371C508.743 168.821 490.854 175.002 470.439 175.002C422.021 175.002 389.693 139.955 389.693 87.5008C389.693 35.0468 422.263 -0.00012207 470.187 -0.00012207C518.111 -0.00012207 551.176 35.0468 551.176 88.8785H551.185ZM411.021 87.5008C411.021 128.738 434.652 156.217 470.439 156.217C506.226 156.217 529.857 128.747 529.857 88.4131C529.857 46.0403 506.45 18.7847 470.197 18.7847C433.944 18.7847 411.021 46.2544 411.021 87.5008Z" fill="#1A1A1D"/>
<path d="M586.823 51.5696V65.1602C586.823 66.994 589.191 67.7201 590.226 66.2027C599.837 52.1374 608.534 46.2544 619.627 46.2544C621.51 46.2544 623.076 46.4126 625.341 46.7198C626.264 46.8408 626.963 47.6321 626.963 48.5629V64.5272C626.963 65.5511 626.134 66.3889 625.108 66.3889C600.033 66.3424 588.65 79.2441 588.427 107.412V167.862C588.427 168.886 587.588 169.724 586.562 169.724H571.013C569.988 169.724 569.149 168.886 569.149 167.862V51.5696C569.149 50.5457 569.988 49.7079 571.013 49.7079H584.959C585.984 49.7079 586.823 50.5457 586.823 51.5696Z" fill="#1A1A1D"/>
<path d="M656.346 26.7994H640.816C639.79 26.7994 638.951 25.9616 638.951 24.9377V4.60769C638.951 3.58375 639.79 2.74597 640.816 2.74597H656.346C657.372 2.74597 658.211 3.58375 658.211 4.60769V24.947C658.211 25.971 657.372 26.8087 656.346 26.8087V26.7994ZM656.346 169.733H641.04C640.014 169.733 639.175 168.895 639.175 167.871V51.5696C639.175 50.5457 640.014 49.7079 641.04 49.7079H656.346C657.372 49.7079 658.211 50.5457 658.211 51.5696V167.871C658.211 168.895 657.372 169.733 656.346 169.733Z" fill="#1A1A1D"/>
<path d="M791.261 171.483C791.261 172.34 790.664 173.094 789.834 173.289C784.456 174.611 782.013 174.983 778.182 174.983C766.958 174.983 761.011 170.664 758.969 160.648C758.681 159.252 757.003 158.675 755.921 159.605C743.393 170.366 731.824 174.983 717.627 174.983C693.306 174.983 678.177 161.253 678.177 139.489C678.177 123.916 685.289 113.379 699.281 107.412C706.618 104.443 710.747 103.53 737.818 100.105C753.414 98.0382 757.543 95.0502 757.767 86.8027V81.7668C757.767 70.3172 748.37 63.8942 730.929 63.8942C713.488 63.8942 704.977 70.0565 702.926 83.6285C702.786 84.5314 702.003 85.1923 701.09 85.1923H685.41C684.338 85.1923 683.481 84.2801 683.546 83.2096C684.189 72.514 686.529 66.0631 691.703 60.236C699.98 51.2997 713.963 46.2451 731.619 46.2451C761.225 46.2451 776.821 57.6947 776.821 79.0207V149.561C776.821 155.528 780.484 158.963 787.131 158.963C787.811 158.963 788.408 158.963 789.191 158.87C790.291 158.74 791.261 159.615 791.261 160.722V171.483ZM757.767 113.258C757.767 111.927 756.415 111.042 755.185 111.545C749.955 113.686 744.614 114.691 727.042 117.046C706.385 120.034 698.125 126.448 698.125 139.033C698.125 151.619 706.851 158.284 721.756 158.284C732.999 158.284 742.414 154.607 750.207 147.523C755.94 142.245 757.776 138.345 757.776 131.949V113.258H757.767Z" fill="#1A1A1D"/>
<path d="M823.685 51.5696V63.8104C823.685 65.607 825.979 66.361 827.051 64.9089C836.717 51.7744 847.587 46.2544 863.602 46.2544C886.785 46.2544 901.691 59.091 901.691 79.03V167.871C901.691 168.895 900.852 169.733 899.827 169.733H884.52C883.495 169.733 882.656 168.895 882.656 167.871V86.5793C882.656 72.1416 873.017 62.982 857.869 62.982C838.144 62.982 825.289 79.0207 825.289 103.53V167.862C825.289 168.886 824.45 169.724 823.424 169.724H807.894C806.869 169.724 806.03 168.886 806.03 167.862V51.5696C806.03 50.5457 806.869 49.7079 807.894 49.7079H821.821C822.846 49.7079 823.685 50.5457 823.685 51.5696Z" fill="#1A1A1D"/>
<path d="M1034.1 171.483C1034.1 172.34 1033.5 173.094 1032.67 173.289C1027.28 174.611 1024.83 174.983 1021.02 174.983C1009.8 174.983 1003.85 170.664 1001.81 160.648C1001.52 159.252 999.84 158.675 998.759 159.605C986.23 170.366 974.662 174.983 960.465 174.983C936.144 174.983 921.014 161.253 921.014 139.489C921.014 123.916 928.127 113.379 942.119 107.412C949.455 104.443 953.585 103.53 980.656 100.105C996.251 98.0382 1000.38 95.0502 1000.6 86.8027V81.7668C1000.6 70.3172 991.208 63.8942 973.786 63.8942C956.363 63.8942 947.815 70.0565 945.764 83.6285C945.624 84.5314 944.841 85.1923 943.928 85.1923H928.248C927.176 85.1923 926.318 84.2801 926.384 83.2096C927.027 72.514 929.367 66.0631 934.54 60.236C942.818 51.2997 956.801 46.2451 974.457 46.2451C1004.06 46.2451 1019.66 57.6947 1019.66 79.0207V149.561C1019.66 155.528 1023.32 158.963 1029.97 158.963C1030.65 158.963 1031.25 158.963 1032.03 158.87C1033.13 158.74 1034.1 159.615 1034.1 160.722V171.483ZM1000.6 113.258C1000.6 111.927 999.253 111.042 998.023 111.545C992.793 113.686 987.452 114.691 969.88 117.046C949.222 120.034 940.963 126.448 940.963 139.033C940.963 151.619 949.688 158.284 964.594 158.284C975.836 158.284 985.252 154.607 993.045 147.523C998.778 142.245 1000.61 138.345 1000.61 131.949V113.258H1000.6Z" fill="#1A1A1D"/>
<path d="M551.187 88.8786C551.187 116.125 540.392 142.021 522.27 157.371C508.744 168.821 490.855 175.002 470.44 175.002C422.022 175.002 389.694 139.955 389.694 87.5009C389.694 35.0469 422.265 0 470.189 0C518.112 0 551.177 35.0469 551.177 88.8786H551.187ZM411.022 87.5009C411.022 128.738 434.653 156.217 470.44 156.217C506.227 156.217 529.858 128.747 529.858 88.4132C529.858 46.0404 506.451 18.7848 470.198 18.7848C433.945 18.7848 411.022 46.2545 411.022 87.5009Z" fill="#1A1A1D"/>
<path d="M586.823 51.5696V65.1602C586.823 66.994 589.191 67.7201 590.225 66.2027C599.836 52.1374 608.534 46.2544 619.627 46.2544C621.51 46.2544 623.076 46.4126 625.341 46.7198C626.264 46.8408 626.963 47.6321 626.963 48.5629V64.5272C626.963 65.5511 626.133 66.3889 625.108 66.3889C600.032 66.3424 588.65 79.2441 588.426 107.412V167.862C588.426 168.886 587.587 169.724 586.562 169.724H571.013C569.987 169.724 569.148 168.886 569.148 167.862V51.5696C569.148 50.5457 569.987 49.7079 571.013 49.7079H584.958C585.984 49.7079 586.823 50.5457 586.823 51.5696Z" fill="#1A1A1D"/>
<path d="M656.346 26.7994H640.816C639.79 26.7994 638.951 25.9616 638.951 24.9377V4.60769C638.951 3.58375 639.79 2.74597 640.816 2.74597H656.346C657.372 2.74597 658.211 3.58375 658.211 4.60769V24.947C658.211 25.971 657.372 26.8087 656.346 26.8087V26.7994ZM656.346 169.733H641.04C640.014 169.733 639.175 168.895 639.175 167.871V51.5696C639.175 50.5457 640.014 49.7079 641.04 49.7079H656.346C657.372 49.7079 658.211 50.5457 658.211 51.5696V167.871C658.211 168.895 657.372 169.733 656.346 169.733Z" fill="#1A1A1D"/>
<path d="M791.261 171.483C791.261 172.339 790.665 173.093 789.835 173.289C784.456 174.611 782.014 174.983 778.183 174.983C766.959 174.983 761.012 170.664 758.97 160.648C758.681 159.252 757.003 158.674 755.922 159.605C743.393 170.366 731.825 174.983 717.628 174.983C693.307 174.983 678.177 161.253 678.177 139.489C678.177 123.916 685.29 113.379 699.282 107.412C706.618 104.442 710.748 103.53 737.819 100.105C753.414 98.0381 757.544 95.05 757.768 86.8026V81.7666C757.768 70.3171 748.371 63.8941 730.93 63.8941C713.489 63.8941 704.978 70.0564 702.927 83.6284C702.787 84.5313 702.004 85.1922 701.091 85.1922H685.411C684.339 85.1922 683.481 84.28 683.547 83.2095C684.19 72.5139 686.53 66.063 691.703 60.2358C699.981 51.2996 713.964 46.245 731.62 46.245C761.226 46.245 776.822 57.6946 776.822 79.0206V149.561C776.822 155.528 780.485 158.963 787.132 158.963C787.812 158.963 788.409 158.963 789.192 158.87C790.292 158.74 791.261 159.615 791.261 160.722V171.483ZM757.768 113.258C757.768 111.927 756.416 111.042 755.186 111.545C749.956 113.686 744.614 114.691 727.043 117.046C706.385 120.034 698.126 126.448 698.126 139.033C698.126 151.618 706.851 158.283 721.757 158.283C732.999 158.283 742.415 154.607 750.208 147.523C755.941 142.245 757.777 138.344 757.777 131.949V113.258H757.768Z" fill="#1A1A1D"/>
<path d="M823.686 51.5696V63.8104C823.686 65.607 825.979 66.361 827.051 64.9089C836.718 51.7744 847.587 46.2544 863.602 46.2544C886.786 46.2544 901.691 59.091 901.691 79.03V167.871C901.691 168.895 900.852 169.733 899.827 169.733H884.52C883.495 169.733 882.656 168.895 882.656 167.871V86.5793C882.656 72.1416 873.017 62.982 857.869 62.982C838.144 62.982 825.289 79.0207 825.289 103.53V167.862C825.289 168.886 824.45 169.724 823.425 169.724H807.894C806.869 169.724 806.03 168.886 806.03 167.862V51.5696C806.03 50.5457 806.869 49.7079 807.894 49.7079H821.821C822.847 49.7079 823.686 50.5457 823.686 51.5696Z" fill="#1A1A1D"/>
<path d="M1034.1 171.483C1034.1 172.339 1033.5 173.093 1032.67 173.289C1027.28 174.611 1024.83 174.983 1021.02 174.983C1009.8 174.983 1003.85 170.664 1001.81 160.648C1001.52 159.252 999.839 158.674 998.758 159.605C986.229 170.366 974.661 174.983 960.463 174.983C936.143 174.983 921.013 161.253 921.013 139.489C921.013 123.916 928.126 113.379 942.118 107.412C949.454 104.442 953.584 103.53 980.655 100.105C996.25 98.0381 1000.38 95.05 1000.6 86.8026V81.7666C1000.6 70.3171 991.207 63.8941 973.785 63.8941C956.362 63.8941 947.814 70.0564 945.763 83.6284C945.623 84.5313 944.84 85.1922 943.926 85.1922H928.247C927.175 85.1922 926.317 84.28 926.383 83.2095C927.026 72.5139 929.366 66.063 934.539 60.2358C942.817 51.2996 956.8 46.245 974.456 46.245C1004.06 46.245 1019.66 57.6946 1019.66 79.0206V149.561C1019.66 155.528 1023.32 158.963 1029.97 158.963C1030.65 158.963 1031.24 158.963 1032.03 158.87C1033.13 158.74 1034.1 159.615 1034.1 160.722V171.483ZM1000.6 113.258C1000.6 111.927 999.252 111.042 998.021 111.545C992.792 113.686 987.45 114.691 969.879 117.046C949.221 120.034 940.962 126.448 940.962 139.033C940.962 151.618 949.687 158.283 964.593 158.283C975.835 158.283 985.25 154.607 993.044 147.523C998.777 142.245 1000.61 138.344 1000.61 131.949V113.258H1000.6Z" fill="#1A1A1D"/>
<path d="M496.743 248.502C495.755 248.502 494.935 247.739 494.888 246.752C493.909 225.882 479.078 214.61 453.191 214.61C430.707 214.61 415.801 225.817 415.801 242.778C415.801 255.614 423.137 262.028 443.329 267.511L485.296 278.737C508.013 284.927 520.859 300.035 520.859 320.663C520.859 335.082 513.746 349.985 502.495 358.921C491.719 367.169 475.433 371.739 455.466 371.739C430.008 371.739 410.748 363.734 399.283 347.918C392.897 339.15 389.905 329.543 389.467 315.273C389.439 314.221 390.268 313.337 391.331 313.337H407.728C408.735 313.337 409.574 314.137 409.593 315.152C409.714 324.591 412.492 332.094 418.327 338.991C426.363 348.617 438.518 352.964 456.864 352.964C470.409 352.964 480.961 350.692 487.608 345.88C494.72 340.825 499.521 331.666 499.521 322.729C499.521 309.669 490.125 301.208 468.796 295.706L427.276 284.722C405.258 278.997 394.472 266.161 394.472 245.775C394.472 215.541 417.19 196.756 453.89 196.756C482.098 196.756 501.6 206.828 510.763 226.078C514.231 233.413 515.042 236.681 515.126 246.631C515.126 247.665 514.296 248.512 513.261 248.512H496.752L496.743 248.502Z" fill="#1A1A1D"/>
<path d="M642.056 308.301C642.056 347.695 621.641 371.739 587.7 371.739C553.759 371.739 533.325 347.918 533.325 307.37C533.325 266.822 553.516 243.001 587.457 243.001C621.398 243.001 642.056 266.598 642.056 308.301ZM553.293 307.361C553.293 336.459 566.371 354.099 587.7 354.099C609.028 354.099 622.107 336.45 622.107 308.049C622.107 279.649 609.252 260.641 587.7 260.641C566.147 260.641 553.293 278.29 553.293 307.361Z" fill="#1A1A1D"/>
<path d="M679.489 366.47H663.94C662.915 366.47 662.076 365.633 662.076 364.609V201.345C662.076 200.321 662.915 199.483 663.94 199.483H679.489C680.515 199.483 681.354 200.321 681.354 201.345V364.609C681.354 365.633 680.515 366.47 679.489 366.47Z" fill="#1A1A1D"/>
<path d="M784.588 364.609V355.291C784.588 353.541 782.379 352.75 781.279 354.109C771.09 366.703 760.379 371.73 744.448 371.73C721.059 371.73 706.135 358.912 706.135 338.973V248.298C706.135 247.274 706.974 246.436 707.999 246.436H723.325C724.35 246.436 725.189 247.274 725.189 248.298V331.414C725.189 345.852 734.809 355.012 749.957 355.012C769.906 355.012 782.761 338.973 782.761 314.463V248.298C782.761 247.274 783.6 246.436 784.625 246.436H799.951C800.976 246.436 801.815 247.274 801.815 248.298V364.599C801.815 365.623 800.976 366.461 799.951 366.461H786.462C785.436 366.461 784.598 365.623 784.598 364.599L784.588 364.609Z" fill="#1A1A1D"/>
<path d="M869.05 262.018H853.053C852.028 262.018 851.189 262.856 851.189 263.88V344.251C851.189 352.722 853.482 355.011 861.741 355.011C864.622 355.011 866.747 354.89 868.77 354.546C869.898 354.36 870.914 355.244 870.914 356.389V368.555C870.914 369.468 870.252 370.24 869.357 370.389C863.811 371.339 859.961 371.72 855.319 371.72C840.413 371.72 832.154 365.083 832.154 352.712V263.871C832.154 262.847 831.315 262.009 830.289 262.009H817.733C816.707 262.009 815.868 261.171 815.868 260.147V248.298C815.868 247.274 816.707 246.436 817.733 246.436H830.289C831.315 246.436 832.154 245.598 832.154 244.574V215.298C832.154 214.275 832.993 213.437 834.018 213.437H849.325C850.35 213.437 851.189 214.275 851.189 215.298V244.574C851.189 245.598 852.028 246.436 853.053 246.436H869.05C870.075 246.436 870.914 247.274 870.914 248.298V260.147C870.914 261.171 870.075 262.009 869.05 262.009V262.018Z" fill="#1A1A1D"/>
<path d="M901.671 223.527H886.14C885.115 223.527 884.276 222.69 884.276 221.666V201.345C884.276 200.321 885.115 199.483 886.14 199.483H901.671C902.696 199.483 903.535 200.321 903.535 201.345V221.666C903.535 222.69 902.696 223.527 901.671 223.527ZM901.671 366.47H886.364C885.339 366.47 884.5 365.633 884.5 364.609V248.307C884.5 247.283 885.339 246.445 886.364 246.445H901.671C902.696 246.445 903.535 247.283 903.535 248.307V364.609C903.535 365.633 902.696 366.47 901.671 366.47Z" fill="#1A1A1D"/>
<path d="M1030.86 308.301C1030.86 347.695 1010.44 371.739 976.504 371.739C942.563 371.739 922.129 347.918 922.129 307.37C922.129 266.822 942.32 243.001 976.261 243.001C1010.2 243.001 1030.86 266.598 1030.86 308.301ZM942.106 307.361C942.106 336.459 955.185 354.099 976.513 354.099C997.842 354.099 1010.92 336.45 1010.92 308.049C1010.92 279.649 998.065 260.641 976.513 260.641C954.961 260.641 942.106 278.29 942.106 307.361Z" fill="#1A1A1D"/>
<path d="M1069.01 248.307V260.548C1069.01 262.344 1071.3 263.098 1072.37 261.646C1082.04 248.512 1092.91 242.992 1108.92 242.992C1132.11 242.992 1147.01 255.828 1147.01 275.767V364.609C1147.01 365.632 1146.17 366.47 1145.15 366.47H1129.84C1128.82 366.47 1127.98 365.632 1127.98 364.609V283.316C1127.98 268.879 1118.34 259.719 1103.19 259.719C1083.46 259.719 1070.61 275.758 1070.61 300.267V364.599C1070.61 365.623 1069.77 366.461 1068.75 366.461H1053.21C1052.19 366.461 1051.35 365.623 1051.35 364.599V248.297C1051.35 247.274 1052.19 246.436 1053.21 246.436H1067.14C1068.17 246.436 1069.01 247.274 1069.01 248.297V248.307Z" fill="#1A1A1D"/>
<path d="M1238.72 279.891C1237.76 279.891 1236.96 279.156 1236.87 278.206C1235.76 266.691 1227.58 260.641 1212.91 260.641C1197.31 260.641 1187.45 267.501 1187.45 278.737C1187.45 287.226 1194.09 292.262 1209.69 295.911L1228.04 300.277C1251.91 306.002 1261.99 315.85 1261.99 333.723C1261.99 356.855 1242.72 371.739 1212.44 371.739C1182.16 371.739 1166.19 359.098 1164.6 332.736C1164.53 331.656 1165.38 330.744 1166.46 330.744H1183.07C1183.99 330.744 1184.77 331.423 1184.91 332.336C1186.02 339.68 1187.4 342.882 1190.2 346.094C1195.02 351.13 1203.74 354.118 1214.05 354.118C1230.8 354.118 1242.06 346.559 1242.06 335.091C1242.06 326.62 1236.77 321.808 1223.47 318.605L1205.57 314.258C1177.12 307.379 1167.48 298.443 1167.48 279.658C1167.48 257.448 1185.6 243.01 1213.6 243.01C1241.59 243.01 1256.06 255.568 1257.12 277.927C1257.17 278.997 1256.33 279.9 1255.25 279.9H1238.73L1238.72 279.891Z" fill="#1A1A1D"/>
</g>
<defs>
<clipPath id="clip0_4532_7653">
<rect width="1262" height="372" fill="white"/>
</clipPath>
</defs>
</svg>
