<svg width="1057" height="691" viewBox="0 0 1057 691" fill="none" xmlns="http://www.w3.org/2000/svg">
<path d="M264.894 549.308C264.894 594.134 247.188 636.74 217.463 661.994C195.276 680.831 165.933 691 132.447 691C53.0278 691 0 633.34 0 547.042C0 460.743 53.4253 403.083 132.034 403.083C210.643 403.083 264.879 460.743 264.879 549.308H264.894ZM34.9849 547.042C34.9849 614.886 73.7465 660.095 132.447 660.095C191.148 660.095 229.909 614.901 229.909 548.542C229.909 478.83 191.515 433.988 132.05 433.988C72.5844 433.988 34.9849 479.182 34.9849 547.042Z" fill="#1A1A1D"/>
<path d="M323.344 487.927V510.286C323.344 513.303 327.228 514.498 328.925 512.002C344.69 488.861 358.956 479.182 377.152 479.182C380.24 479.182 382.809 479.442 386.525 479.948C388.039 480.147 389.185 481.449 389.185 482.98V509.245C389.185 510.93 387.824 512.308 386.142 512.308C345.011 512.231 326.341 533.457 325.974 579.8V679.254C325.974 680.938 324.598 682.316 322.916 682.316H297.411C295.729 682.316 294.353 680.938 294.353 679.254V487.927C294.353 486.242 295.729 484.864 297.411 484.864H320.286C321.968 484.864 323.344 486.242 323.344 487.927Z" fill="#1A1A1D"/>
<path d="M437.386 447.174H411.912C410.23 447.174 408.854 445.796 408.854 444.111V410.664C408.854 408.98 410.23 407.601 411.912 407.601H437.386C439.068 407.601 440.444 408.98 440.444 410.664V444.127C440.444 445.811 439.068 447.19 437.386 447.19V447.174ZM437.386 682.332H412.279C410.597 682.332 409.22 680.954 409.22 679.269V487.927C409.22 486.242 410.597 484.864 412.279 484.864H437.386C439.068 484.864 440.444 486.242 440.444 487.927V679.269C440.444 680.954 439.068 682.332 437.386 682.332Z" fill="#1A1A1D"/>
<path d="M658.687 685.211C658.687 686.62 657.709 687.86 656.348 688.182C647.525 690.357 643.519 690.969 637.235 690.969C618.825 690.969 609.069 683.863 605.721 667.385C605.247 665.087 602.494 664.138 600.721 665.669C580.17 683.373 561.195 690.969 537.907 690.969C498.014 690.969 473.197 668.38 473.197 632.574C473.197 606.953 484.864 589.616 507.815 579.8C519.849 574.914 526.623 573.414 571.026 567.778C596.608 564.378 603.381 559.462 603.748 545.893V537.608C603.748 518.771 588.335 508.203 559.727 508.203C531.118 508.203 517.158 518.342 513.794 540.671C513.564 542.156 512.28 543.244 510.782 543.244H485.063C483.304 543.244 481.898 541.743 482.005 539.981C483.06 522.385 486.898 511.772 495.384 502.185C508.962 487.483 531.898 479.167 560.858 479.167C609.421 479.167 635.002 498.004 635.002 533.09V649.145C635.002 658.962 641.012 664.613 651.914 664.613C653.03 664.613 654.008 664.613 655.293 664.46C657.097 664.245 658.687 665.685 658.687 667.507V685.211ZM603.748 589.417C603.748 587.227 601.531 585.772 599.513 586.599C590.935 590.122 582.173 591.776 553.351 595.65C519.467 600.567 505.919 611.118 505.919 631.824C505.919 652.529 520.231 663.495 544.681 663.495C563.121 663.495 578.565 657.445 591.348 645.791C600.751 637.107 603.764 630.691 603.764 620.169V589.417H603.748Z" fill="#1A1A1D"/>
<path d="M711.868 487.927V508.066C711.868 511.021 715.63 512.262 717.388 509.873C733.244 488.264 751.073 479.182 777.342 479.182C815.37 479.182 839.82 500.301 839.82 533.105V679.269C839.82 680.954 838.444 682.332 836.762 682.332H811.655C809.973 682.332 808.596 680.954 808.596 679.269V545.525C808.596 521.772 792.786 506.703 767.939 506.703C735.584 506.703 714.498 533.09 714.498 573.414V679.254C714.498 680.938 713.122 682.317 711.44 682.317H685.966C684.284 682.317 682.908 680.938 682.908 679.254V487.927C682.908 486.242 684.284 484.864 685.966 484.864H708.81C710.492 484.864 711.868 486.242 711.868 487.927Z" fill="#1A1A1D"/>
<path d="M1057 685.211C1057 686.62 1056.02 687.86 1054.66 688.182C1045.82 690.357 1041.8 690.969 1035.55 690.969C1017.14 690.969 1007.38 683.863 1004.03 667.385C1003.56 665.087 1000.81 664.138 999.033 665.669C978.483 683.373 959.507 690.969 936.219 690.969C896.326 690.969 871.51 668.38 871.51 632.574C871.51 606.953 883.177 589.616 906.128 579.8C918.161 574.914 924.935 573.414 969.339 567.778C994.92 564.378 1001.69 559.462 1002.06 545.893V537.608C1002.06 518.771 986.648 508.203 958.07 508.203C929.492 508.203 915.47 518.342 912.106 540.671C911.877 542.156 910.593 543.244 909.094 543.244H883.375C881.617 543.244 880.21 541.743 880.317 539.981C881.372 522.385 885.21 511.772 893.696 502.185C907.274 487.483 930.21 479.167 959.171 479.167C1007.73 479.167 1033.31 498.004 1033.31 533.09V649.145C1033.31 658.962 1039.32 664.613 1050.23 664.613C1051.34 664.613 1052.32 664.613 1053.61 664.46C1055.41 664.245 1057 665.685 1057 667.507V685.211ZM1002.06 589.417C1002.06 587.227 999.844 585.772 997.825 586.599C989.247 590.122 980.486 591.776 951.663 595.65C917.779 600.567 904.232 611.118 904.232 631.824C904.232 652.529 918.544 663.495 942.993 663.495C961.434 663.495 976.877 657.445 989.66 645.791C999.064 637.107 1002.08 630.691 1002.08 620.169V589.417H1002.06Z" fill="#1A1A1D"/>
<path d="M483.249 171.166C480.447 171.166 477.627 170.552 474.995 169.305C468.129 166.046 463.818 159.064 463.978 151.459L466.912 8.59865C467.016 3.75224 471.015 -0.0927677 475.854 0.00170423L496.878 0.436275C501.717 0.540194 505.556 4.5458 505.462 9.39221L503.415 109.23L592.041 33.4542C595.719 30.3083 601.256 30.7429 604.397 34.4273L618.055 50.4497C621.196 54.1341 620.762 59.6796 617.084 62.8255L495.784 166.537C492.219 169.579 487.767 171.156 483.268 171.156L483.249 171.166Z" fill="#1A1A1D"/>
<path d="M365.861 277.125L360.089 256.871C358.759 252.213 361.457 247.348 366.107 246.016L458.845 219.488L348.713 129.91C344.959 126.858 344.384 121.322 347.44 117.562L360.702 101.209C363.749 97.4493 369.276 96.873 373.03 99.9339L511.892 212.894C517.467 217.429 520.07 224.703 518.627 231.76C517.184 238.817 511.949 244.476 505.035 246.45L376.709 283.162C372.058 284.494 367.201 281.792 365.88 277.135L365.861 277.125Z" fill="#1A1A1D"/>
<path d="M625.469 321.716C621.13 323.861 615.876 322.075 613.735 317.729L537.456 162.852C534.258 156.371 534.956 148.644 539.248 142.834C543.54 137.024 550.708 134.095 557.839 135.257L699.861 158.318C704.634 159.092 707.888 163.599 707.105 168.388L703.738 189.182C702.964 193.962 698.465 197.221 693.683 196.437L588.588 179.366L648.323 300.649C650.464 304.995 648.681 310.257 644.343 312.401L625.478 321.716H625.469Z" fill="#1A1A1D"/>
<path d="M527.929 237.575L469.747 353.49C467.574 357.82 469.317 363.096 473.64 365.273L492.433 374.735C496.757 376.913 502.024 375.167 504.198 370.836L562.38 254.922C564.554 250.591 562.811 245.315 558.487 243.138L539.694 233.676C535.37 231.499 530.103 233.244 527.929 237.575Z" fill="#1A1A1D"/>
</svg>
