<svg width="1262" height="374" viewBox="0 0 1262 374" fill="none" xmlns="http://www.w3.org/2000/svg">
<g clip-path="url(#clip0_4532_7733)">
<path d="M136.156 171.385C133.388 171.385 130.6 170.777 128 169.541C121.213 166.313 116.953 159.397 117.112 151.863L120.011 10.3412C120.113 5.54019 124.066 1.73122 128.848 1.82481L149.626 2.25531C154.409 2.35825 158.203 6.32632 158.109 11.1273L156.087 110.03L243.675 34.9638C247.311 31.8474 252.783 32.2779 255.887 35.9278L269.385 51.8C272.489 55.4499 272.06 60.9434 268.425 64.0599L148.545 166.799C145.021 169.813 140.621 171.376 136.175 171.376L136.156 171.385Z" fill="white"/>
<path d="M20.1457 276.352L14.4407 256.287C13.1263 251.673 15.7923 246.853 20.388 245.534L112.041 219.254L3.19843 130.516C-0.511685 127.493 -1.08032 122.009 1.93998 118.284L15.0466 102.084C18.0576 98.3593 23.5202 97.7884 27.2303 100.821L164.467 212.722C169.977 217.214 172.55 224.42 171.123 231.411C169.697 238.402 164.523 244.008 157.69 245.964L30.8659 282.332C26.2702 283.651 21.4694 280.975 20.1643 276.361L20.1457 276.352Z" fill="white"/>
<path d="M276.711 320.524C272.423 322.649 267.23 320.88 265.114 316.575L189.728 163.149C186.568 156.729 187.258 149.074 191.499 143.318C195.741 137.563 202.825 134.662 209.873 135.813L350.233 158.657C354.949 159.425 358.166 163.889 357.392 168.633L354.064 189.232C353.299 193.967 348.853 197.196 344.127 196.419L240.262 179.508L299.298 299.655C301.414 303.96 299.652 309.172 295.364 311.297L276.72 320.524H276.711Z" fill="white"/>
<path d="M180.317 237.172L122.816 352C120.668 356.29 122.39 361.516 126.664 363.673L145.237 373.047C149.51 375.204 154.715 373.475 156.864 369.184L214.364 254.356C216.513 250.066 214.79 244.84 210.517 242.683L191.944 233.309C187.671 231.153 182.465 232.882 180.317 237.172Z" fill="white"/>
<path d="M551.185 89.3563C551.185 116.749 540.391 142.785 522.269 158.217C508.743 169.728 490.854 175.943 470.439 175.943C422.021 175.943 389.693 140.707 389.693 87.9713C389.693 35.2352 422.263 -0.00012207 470.187 -0.00012207C518.111 -0.00012207 551.176 35.2352 551.176 89.3563H551.185ZM411.021 87.9713C411.021 129.43 434.652 157.057 470.439 157.057C506.226 157.057 529.857 129.439 529.857 88.8884C529.857 46.2878 506.45 18.8856 470.197 18.8856C433.944 18.8856 411.021 46.503 411.021 87.9713Z" fill="white"/>
<path d="M586.823 51.8468V65.5105C586.823 67.3541 589.191 68.0841 590.226 66.5587C599.837 52.4177 608.534 46.5031 619.627 46.5031C621.51 46.5031 623.076 46.6621 625.341 46.971C626.264 47.0926 626.963 47.8881 626.963 48.824V64.8741C626.963 65.9035 626.134 66.7458 625.108 66.7458C600.033 66.699 588.65 79.6701 588.427 107.989V168.765C588.427 169.794 587.588 170.636 586.562 170.636H571.013C569.988 170.636 569.149 169.794 569.149 168.765V51.8468C569.149 50.8174 569.988 49.9751 571.013 49.9751H584.959C585.984 49.9751 586.823 50.8174 586.823 51.8468Z" fill="white"/>
<path d="M656.346 26.9435H640.816C639.79 26.9435 638.951 26.1012 638.951 25.0718V4.63247C638.951 3.60302 639.79 2.76074 640.816 2.76074H656.346C657.372 2.76074 658.211 3.60302 658.211 4.63247V25.0811C658.211 26.1106 657.372 26.9529 656.346 26.9529V26.9435ZM656.346 170.646H641.04C640.014 170.646 639.175 169.803 639.175 168.774V51.8469C639.175 50.8174 640.014 49.9752 641.04 49.9752H656.346C657.372 49.9752 658.211 50.8174 658.211 51.8469V168.774C658.211 169.803 657.372 170.646 656.346 170.646Z" fill="white"/>
<path d="M791.261 172.405C791.261 173.266 790.664 174.024 789.834 174.221C784.456 175.55 782.013 175.924 778.182 175.924C766.958 175.924 761.011 171.582 758.969 161.512C758.681 160.108 757.003 159.528 755.921 160.463C743.393 171.282 731.824 175.924 717.627 175.924C693.306 175.924 678.177 162.12 678.177 140.239C678.177 124.582 685.289 113.988 699.281 107.99C706.618 105.004 710.747 104.087 737.818 100.643C753.414 98.5653 757.543 95.5612 757.767 87.2694V82.2064C757.767 70.6953 748.37 64.2378 730.929 64.2378C713.488 64.2378 704.977 70.4332 702.926 84.0781C702.786 84.9859 702.003 85.6504 701.09 85.6504H685.41C684.338 85.6504 683.481 84.7332 683.546 83.657C684.189 72.9039 686.529 66.4184 691.703 60.5598C699.98 51.5755 713.963 46.4938 731.619 46.4938C761.225 46.4938 776.821 58.0049 776.821 79.4456V150.365C776.821 156.364 780.484 159.818 787.131 159.818C787.811 159.818 788.408 159.818 789.191 159.724C790.291 159.593 791.261 160.473 791.261 161.587V172.405ZM757.767 113.867C757.767 112.528 756.415 111.639 755.185 112.145C749.955 114.297 744.614 115.308 727.042 117.676C706.385 120.68 698.125 127.128 698.125 139.781C698.125 152.434 706.851 159.135 721.756 159.135C732.999 159.135 742.414 155.438 750.207 148.316C755.94 143.01 757.776 139.088 757.776 132.659V113.867H757.767Z" fill="white"/>
<path d="M823.685 51.8468V64.1535C823.685 65.9597 825.979 66.7178 827.051 65.2578C836.717 52.0527 847.587 46.5031 863.602 46.5031C886.785 46.5031 901.691 59.4086 901.691 79.4549V168.774C901.691 169.803 900.852 170.646 899.827 170.646H884.52C883.495 170.646 882.656 169.803 882.656 168.774V87.0448C882.656 72.5295 873.017 63.3206 857.869 63.3206C838.144 63.3206 825.289 79.4455 825.289 104.087V168.765C825.289 169.794 824.45 170.636 823.424 170.636H807.894C806.869 170.636 806.03 169.794 806.03 168.765V51.8468C806.03 50.8174 806.869 49.9751 807.894 49.9751H821.821C822.846 49.9751 823.685 50.8174 823.685 51.8468Z" fill="white"/>
<path d="M1034.1 172.405C1034.1 173.266 1033.5 174.024 1032.67 174.221C1027.28 175.55 1024.83 175.924 1021.02 175.924C1009.8 175.924 1003.85 171.582 1001.81 161.512C1001.52 160.108 999.84 159.528 998.759 160.463C986.23 171.282 974.662 175.924 960.465 175.924C936.144 175.924 921.014 162.12 921.014 140.239C921.014 124.582 928.127 113.988 942.119 107.99C949.455 105.004 953.585 104.087 980.656 100.643C996.251 98.5653 1000.38 95.5612 1000.6 87.2694V82.2064C1000.6 70.6953 991.208 64.2378 973.786 64.2378C956.363 64.2378 947.815 70.4332 945.764 84.0781C945.624 84.9859 944.841 85.6504 943.928 85.6504H928.248C927.176 85.6504 926.318 84.7332 926.384 83.657C927.027 72.9039 929.367 66.4184 934.54 60.5598C942.818 51.5755 956.801 46.4938 974.457 46.4938C1004.06 46.4938 1019.66 58.0049 1019.66 79.4456V150.365C1019.66 156.364 1023.32 159.818 1029.97 159.818C1030.65 159.818 1031.25 159.818 1032.03 159.724C1033.13 159.593 1034.1 160.473 1034.1 161.587V172.405ZM1000.6 113.867C1000.6 112.528 999.253 111.639 998.023 112.145C992.793 114.297 987.452 115.308 969.88 117.676C949.222 120.68 940.963 127.128 940.963 139.781C940.963 152.434 949.688 159.135 964.594 159.135C975.836 159.135 985.252 155.438 993.045 148.316C998.778 143.01 1000.61 139.088 1000.61 132.659V113.867H1000.6Z" fill="white"/>
<path d="M496.743 249.838C495.755 249.838 494.935 249.071 494.888 248.079C493.909 227.097 479.078 215.764 453.191 215.764C430.707 215.764 415.801 227.031 415.801 244.083C415.801 256.989 423.137 263.437 443.329 268.949L485.296 280.235C508.013 286.459 520.859 301.648 520.859 322.387C520.859 336.883 513.746 351.867 502.495 360.851C491.719 369.143 475.433 373.738 455.466 373.738C430.008 373.738 410.748 365.689 399.283 349.789C392.897 340.973 389.905 331.315 389.467 316.968C389.439 315.911 390.268 315.022 391.331 315.022H407.728C408.735 315.022 409.574 315.826 409.593 316.846C409.714 326.336 412.492 333.879 418.327 340.814C426.363 350.491 438.518 354.861 456.864 354.861C470.409 354.861 480.961 352.578 487.608 347.739C494.72 342.658 499.521 333.449 499.521 324.464C499.521 311.334 490.125 302.827 468.796 297.296L427.276 286.253C405.258 280.497 394.472 267.592 394.472 247.096C394.472 216.699 417.19 197.814 453.89 197.814C482.098 197.814 501.6 207.94 510.763 227.293C514.231 234.668 515.042 237.953 515.126 247.957C515.126 248.996 514.296 249.848 513.261 249.848H496.752L496.743 249.838Z" fill="white"/>
<path d="M642.056 309.958C642.056 349.564 621.641 373.738 587.7 373.738C553.759 373.738 533.325 349.789 533.325 309.023C533.325 268.256 553.516 244.307 587.457 244.307C621.398 244.307 642.056 268.032 642.056 309.958ZM553.293 309.013C553.293 338.268 566.371 356.003 587.7 356.003C609.028 356.003 622.107 338.259 622.107 309.706C622.107 281.152 609.252 262.042 587.7 262.042C566.147 262.042 553.293 279.786 553.293 309.013Z" fill="white"/>
<path d="M679.489 368.441H663.94C662.915 368.441 662.076 367.598 662.076 366.569V202.427C662.076 201.398 662.915 200.556 663.94 200.556H679.489C680.515 200.556 681.354 201.398 681.354 202.427V366.569C681.354 367.598 680.515 368.441 679.489 368.441Z" fill="white"/>
<path d="M784.588 366.569V357.201C784.588 355.442 782.379 354.646 781.279 356.012C771.09 368.675 760.379 373.728 744.448 373.728C721.059 373.728 706.135 360.841 706.135 340.795V249.633C706.135 248.603 706.974 247.761 707.999 247.761H723.325C724.35 247.761 725.189 248.603 725.189 249.633V333.196C725.189 347.711 734.809 356.92 749.957 356.92C769.906 356.92 782.761 340.795 782.761 316.154V249.633C782.761 248.603 783.6 247.761 784.625 247.761H799.951C800.976 247.761 801.815 248.603 801.815 249.633V366.56C801.815 367.589 800.976 368.431 799.951 368.431H786.462C785.436 368.431 784.598 367.589 784.598 366.56L784.588 366.569Z" fill="white"/>
<path d="M869.05 263.427H853.053C852.028 263.427 851.189 264.269 851.189 265.299V346.101C851.189 354.618 853.482 356.92 861.741 356.92C864.622 356.92 866.747 356.798 868.77 356.452C869.898 356.265 870.914 357.154 870.914 358.305V370.537C870.914 371.454 870.252 372.231 869.357 372.381C863.811 373.335 859.961 373.719 855.319 373.719C840.413 373.719 832.154 367.046 832.154 354.608V265.289C832.154 264.26 831.315 263.418 830.289 263.418H817.733C816.707 263.418 815.868 262.575 815.868 261.546V249.632C815.868 248.603 816.707 247.761 817.733 247.761H830.289C831.315 247.761 832.154 246.918 832.154 245.889V216.456C832.154 215.427 832.993 214.584 834.018 214.584H849.325C850.35 214.584 851.189 215.427 851.189 216.456V245.889C851.189 246.918 852.028 247.761 853.053 247.761H869.05C870.075 247.761 870.914 248.603 870.914 249.632V261.546C870.914 262.575 870.075 263.418 869.05 263.418V263.427Z" fill="white"/>
<path d="M901.671 224.729H886.14C885.115 224.729 884.276 223.887 884.276 222.857V202.427C884.276 201.398 885.115 200.556 886.14 200.556H901.671C902.696 200.556 903.535 201.398 903.535 202.427V222.857C903.535 223.887 902.696 224.729 901.671 224.729ZM901.671 368.441H886.364C885.339 368.441 884.5 367.598 884.5 366.569V249.642C884.5 248.612 885.339 247.77 886.364 247.77H901.671C902.696 247.77 903.535 248.612 903.535 249.642V366.569C903.535 367.598 902.696 368.441 901.671 368.441Z" fill="white"/>
<path d="M1030.86 309.958C1030.86 349.564 1010.44 373.738 976.504 373.738C942.563 373.738 922.129 349.789 922.129 309.023C922.129 268.256 942.32 244.307 976.261 244.307C1010.2 244.307 1030.86 268.032 1030.86 309.958ZM942.106 309.013C942.106 338.268 955.185 356.003 976.513 356.003C997.842 356.003 1010.92 338.259 1010.92 309.706C1010.92 281.152 998.065 262.042 976.513 262.042C954.961 262.042 942.106 279.786 942.106 309.013Z" fill="white"/>
<path d="M1069.01 249.642V261.948C1069.01 263.755 1071.3 264.513 1072.37 263.053C1082.04 249.848 1092.91 244.298 1108.92 244.298C1132.11 244.298 1147.01 257.204 1147.01 277.25V366.569C1147.01 367.598 1146.17 368.441 1145.15 368.441H1129.84C1128.82 368.441 1127.98 367.598 1127.98 366.569V284.84C1127.98 270.324 1118.34 261.115 1103.19 261.115C1083.46 261.115 1070.61 277.24 1070.61 301.882V366.559C1070.61 367.589 1069.77 368.431 1068.75 368.431H1053.21C1052.19 368.431 1051.35 367.589 1051.35 366.559V249.632C1051.35 248.603 1052.19 247.761 1053.21 247.761H1067.14C1068.17 247.761 1069.01 248.603 1069.01 249.632V249.642Z" fill="white"/>
<path d="M1238.72 281.396C1237.76 281.396 1236.96 280.656 1236.87 279.702C1235.76 268.125 1227.58 262.042 1212.91 262.042C1197.31 262.042 1187.45 268.939 1187.45 280.235C1187.45 288.77 1194.09 293.833 1209.69 297.502L1228.04 301.891C1251.91 307.647 1261.99 317.548 1261.99 335.517C1261.99 358.773 1242.72 373.738 1212.44 373.738C1182.16 373.738 1166.19 361.029 1164.6 334.525C1164.53 333.439 1165.38 332.522 1166.46 332.522H1183.07C1183.99 332.522 1184.77 333.205 1184.91 334.122C1186.02 341.506 1187.4 344.726 1190.2 347.954C1195.02 353.018 1203.74 356.022 1214.05 356.022C1230.8 356.022 1242.06 348.422 1242.06 336.893C1242.06 328.376 1236.77 323.538 1223.47 320.318L1205.57 315.948C1177.12 309.032 1167.48 300.048 1167.48 281.162C1167.48 258.832 1185.6 244.317 1213.6 244.317C1241.59 244.317 1256.06 256.942 1257.12 279.421C1257.17 280.497 1256.33 281.405 1255.25 281.405H1238.73L1238.72 281.396Z" fill="white"/>
</g>
<defs>
<clipPath id="clip0_4532_7733">
<rect width="1262" height="374" fill="white"/>
</clipPath>
</defs>
</svg>
