<svg width="361" height="379" viewBox="0 0 361 379" fill="none" xmlns="http://www.w3.org/2000/svg">
<path d="M137.489 171.312C134.693 171.312 131.879 170.697 129.252 169.449C122.4 166.187 118.098 159.199 118.258 151.588L121.186 8.60597C121.289 3.75543 125.28 -0.0928466 130.109 0.00170568L151.09 0.436646C155.919 0.540654 159.75 4.54967 159.656 9.40021L157.613 109.323L246.057 33.4827C249.728 30.3341 255.253 30.769 258.388 34.4566L272.018 50.4926C275.152 54.1802 274.719 59.7304 271.048 62.879L149.998 166.679C146.44 169.723 141.997 171.302 137.508 171.302L137.489 171.312Z" fill="white"/>
<path d="M20.3433 277.361L14.5826 257.089C13.2554 252.428 15.9475 247.558 20.5881 246.225L113.135 219.675L3.23072 130.02C-0.515606 126.966 -1.08979 121.426 1.95998 117.662L15.1945 101.295C18.2348 97.5322 23.7508 96.9555 27.4971 100.019L166.073 213.075C171.636 217.614 174.234 224.894 172.794 231.957C171.354 239.02 166.13 244.684 159.23 246.66L31.1681 283.403C26.5276 284.736 21.6799 282.032 20.3621 277.371L20.3433 277.361Z" fill="white"/>
<path d="M279.415 321.99C275.085 324.136 269.843 322.349 267.706 318L191.584 162.991C188.393 156.505 189.089 148.77 193.372 142.955C197.655 137.14 204.809 134.209 211.925 135.372L353.655 158.452C358.418 159.228 361.665 163.738 360.884 168.532L357.523 189.343C356.752 194.127 352.262 197.389 347.489 196.604L242.611 179.519L302.223 300.905C304.36 305.254 302.58 310.521 298.251 312.667L279.425 321.99H279.415Z" fill="white"/>
<path d="M182.077 237.777L124.015 353.79C121.846 358.125 123.585 363.405 127.9 365.584L146.654 375.055C150.969 377.234 156.226 375.486 158.395 371.152L216.457 255.139C218.626 250.804 216.887 245.524 212.572 243.345L193.818 233.875C189.503 231.696 184.246 233.443 182.077 237.777Z" fill="white"/>
</svg>
