<svg width="163" height="40" viewBox="0 0 163 40" fill="none" xmlns="http://www.w3.org/2000/svg">
<g clip-path="url(#clip0_1_563)">
<path d="M47.4448 28.0911H59.1053V24.5789H51.5892V11.3496H47.4448V28.0911Z" fill="#999999"/>
<path d="M66.0136 25.7499C64.3511 25.7499 63.4848 24.2982 63.4848 22.1206C63.4848 19.9431 64.3511 18.468 66.0136 18.468C67.676 18.468 68.5658 19.9431 68.5658 22.1206C68.5658 24.2982 67.676 25.7499 66.0136 25.7499ZM66.037 28.466C69.9004 28.466 72.4292 25.7265 72.4292 22.1206C72.4292 18.5148 69.9004 15.7753 66.037 15.7753C62.197 15.7753 59.6214 18.5148 59.6214 22.1206C59.6214 25.7265 62.197 28.466 66.037 28.466Z" fill="#999999"/>
<path d="M79.1164 32.2357C80.8959 32.2357 82.4647 31.8377 83.5183 30.9011C84.4783 30.0348 85.1105 28.7235 85.1105 26.9206V16.1031H81.4579V17.3909H81.411C80.7086 16.384 79.6315 15.7518 78.0393 15.7518C75.0657 15.7518 73.0052 18.2338 73.0052 21.746C73.0052 25.4221 75.5105 27.4357 78.2032 27.4357C79.6549 27.4357 80.5681 26.8504 81.2705 26.0543H81.3642V27.2484C81.3642 28.7001 80.6852 29.5431 79.0696 29.5431C77.8052 29.5431 77.173 29.0045 76.9622 28.3723H73.2627C73.6374 30.8777 75.8149 32.2357 79.1164 32.2357ZM79.093 24.6026C77.6647 24.6026 76.7281 23.4318 76.7281 21.6289C76.7281 19.8026 77.6647 18.6318 79.093 18.6318C80.6852 18.6318 81.5281 19.9899 81.5281 21.6055C81.5281 23.2913 80.7554 24.6026 79.093 24.6026Z" fill="#999999"/>
<path d="M92.6212 25.7499C90.9587 25.7499 90.0924 24.2982 90.0924 22.1206C90.0924 19.9431 90.9587 18.468 92.6212 18.468C94.2836 18.468 95.1734 19.9431 95.1734 22.1206C95.1734 24.2982 94.2836 25.7499 92.6212 25.7499ZM92.6446 28.466C96.508 28.466 99.0371 25.7265 99.0371 22.1206C99.0371 18.5148 96.508 15.7753 92.6446 15.7753C88.8046 15.7753 86.229 18.5148 86.229 22.1206C86.229 25.7265 88.8046 28.466 92.6446 28.466Z" fill="#999999"/>
<path d="M100.151 28.0911H103.968V16.1028H100.151V28.0911ZM100.151 14.4403H103.968V11.3496H100.151V14.4403Z" fill="#999999"/>
<path d="M105.623 32.0484H109.44V26.8504H109.487C110.236 27.8572 111.337 28.466 112.882 28.466C116.02 28.466 118.103 25.984 118.103 22.0972C118.103 18.4913 116.16 15.7518 112.976 15.7518C111.337 15.7518 110.166 16.4777 109.346 17.5548H109.276V16.1031H105.623V32.0484ZM111.899 25.5157C110.26 25.5157 109.323 24.1811 109.323 22.2377C109.323 20.2943 110.166 18.8191 111.828 18.8191C113.467 18.8191 114.24 20.1772 114.24 22.2377C114.24 24.2748 113.35 25.5157 111.899 25.5157Z" fill="#999999"/>
<path d="M124.318 28.466C127.456 28.466 129.774 27.1079 129.774 24.4855C129.774 21.4182 127.292 20.8796 125.184 20.5284C123.662 20.2474 122.304 20.1304 122.304 19.2874C122.304 18.5382 123.03 18.187 123.967 18.187C125.02 18.187 125.746 18.5148 125.887 19.5918H129.399C129.212 17.227 127.385 15.7518 123.99 15.7518C121.157 15.7518 118.816 17.0631 118.816 19.5918C118.816 22.4016 121.04 22.9635 123.124 23.3148C124.716 23.5957 126.168 23.7128 126.168 24.7899C126.168 25.5626 125.442 25.984 124.295 25.984C123.03 25.984 122.234 25.3987 122.094 24.2045H118.488C118.605 26.8504 120.806 28.466 124.318 28.466Z" fill="#999999"/>
<path d="M134.957 28.4421C136.62 28.4421 137.673 27.7864 138.54 26.6157H138.61V28.0908H142.263V16.1025H138.446V22.7991C138.446 24.2274 137.65 25.2108 136.339 25.2108C135.121 25.2108 134.536 24.485 134.536 23.1738V16.1025H130.743V23.9699C130.743 26.6391 132.194 28.4421 134.957 28.4421Z" fill="#999999"/>
<path d="M143.923 28.0913H147.74V21.3713C147.74 19.9431 148.442 18.9362 149.636 18.9362C150.783 18.9362 151.322 19.6855 151.322 20.9733V28.0913H155.139V21.3713C155.139 19.9431 155.818 18.9362 157.035 18.9362C158.182 18.9362 158.721 19.6855 158.721 20.9733V28.0913H162.538V20.2943C162.538 17.6016 161.18 15.7518 158.463 15.7518C156.918 15.7518 155.63 16.4074 154.694 17.8591H154.647C154.038 16.5713 152.844 15.7518 151.275 15.7518C149.542 15.7518 148.395 16.5713 147.646 17.8123H147.576V16.1031H143.923V28.0913Z" fill="#999999"/>
<path fill-rule="evenodd" clip-rule="evenodd" d="M8.44325 3.79625C7.04748 4.77221 5.78534 5.92611 4.68968 7.22506C9.16704 6.80938 14.8554 7.48813 21.4595 10.7902C28.5118 14.3163 34.1906 14.4355 38.1428 13.6731C37.7842 12.5874 37.3326 11.5439 36.7979 10.5519C32.2737 11.029 26.4737 10.3974 19.7143 7.01782C15.422 4.87167 11.6384 3.9876 8.44325 3.79625ZM34.1551 6.79018C30.5823 2.79832 25.3902 0.286133 19.6113 0.286133C17.9142 0.286133 16.2676 0.502823 14.6978 0.910016C16.8239 1.49012 19.0824 2.3388 21.4595 3.52737C26.4083 6.00177 30.6809 6.79848 34.1551 6.79018ZM38.9878 17.4843C34.2131 18.4271 27.6199 18.2334 19.7143 14.2806C12.3235 10.5852 6.441 10.6318 2.47366 11.5134C2.26888 11.5589 2.06892 11.6067 1.87378 11.6565C1.35436 12.7861 0.93974 13.974 0.642245 15.2076C0.959985 15.1227 1.28832 15.042 1.62708 14.9667C6.44017 13.8971 13.2406 13.9436 21.4595 18.053C28.8504 21.7485 34.7328 21.7019 38.7003 20.8203C38.8362 20.7901 38.9701 20.7589 39.1018 20.7267C39.1163 20.4191 39.1235 20.1095 39.1235 19.7983C39.1235 19.0154 39.0774 18.2432 38.9878 17.4843ZM38.4647 24.8445C33.7365 25.6711 27.3352 25.3538 19.7143 21.5435C12.3235 17.8481 6.441 17.8946 2.47366 18.7763C1.59302 18.9719 0.800818 19.2102 0.10198 19.4618C0.100074 19.5737 0.0991211 19.6859 0.0991211 19.7983C0.0991211 30.5746 8.83501 39.3105 19.6113 39.3105C28.6426 39.3105 36.2408 33.1748 38.4647 24.8445Z" fill="#999999"/>
</g>
<defs>
<clipPath id="clip0_1_563">
<rect width="162.927" height="40" fill="white"/>
</clipPath>
</defs>
</svg>
