<svg width="1056" height="691" viewBox="0 0 1056 691" fill="none" xmlns="http://www.w3.org/2000/svg">
<path d="M264.644 549.308C264.644 594.134 246.954 636.74 217.257 661.994C195.091 680.831 165.776 691 132.322 691C52.9776 691 0 633.34 0 547.042C0 460.743 53.3748 403.083 131.909 403.083C210.444 403.083 264.628 460.743 264.628 549.308H264.644ZM34.9518 547.042C34.9518 614.886 73.6767 660.095 132.322 660.095C190.967 660.095 229.692 614.901 229.692 548.542C229.692 478.83 191.333 433.988 131.925 433.988C72.5157 433.988 34.9518 479.182 34.9518 547.042Z" fill="white"/>
<path d="M323.038 487.927V510.286C323.038 513.303 326.918 514.498 328.614 512.002C344.363 488.861 358.616 479.182 376.794 479.182C379.88 479.182 382.447 479.442 386.159 479.948C387.671 480.147 388.817 481.449 388.817 482.98V509.245C388.817 510.93 387.457 512.308 385.777 512.308C344.684 512.231 326.032 533.457 325.665 579.8V679.254C325.665 680.938 324.29 682.316 322.61 682.316H297.129C295.449 682.316 294.074 680.938 294.074 679.254V487.927C294.074 486.242 295.449 484.864 297.129 484.864H319.983C321.663 484.864 323.038 486.242 323.038 487.927Z" fill="white"/>
<path d="M436.972 447.174H411.522C409.842 447.174 408.467 445.796 408.467 444.111V410.664C408.467 408.98 409.842 407.601 411.522 407.601H436.972C438.652 407.601 440.027 408.98 440.027 410.664V444.127C440.027 445.811 438.652 447.19 436.972 447.19V447.174ZM436.972 682.332H411.889C410.208 682.332 408.833 680.954 408.833 679.269V487.927C408.833 486.242 410.208 484.864 411.889 484.864H436.972C438.652 484.864 440.027 486.242 440.027 487.927V679.269C440.027 680.954 438.652 682.332 436.972 682.332Z" fill="white"/>
<path d="M658.064 685.211C658.064 686.62 657.086 687.86 655.727 688.182C646.913 690.357 642.91 690.969 636.632 690.969C618.239 690.969 608.493 683.863 605.148 667.385C604.674 665.087 601.924 664.138 600.152 665.669C579.621 683.373 560.664 690.969 537.398 690.969C497.543 690.969 472.75 668.38 472.75 632.574C472.75 606.953 484.405 589.616 507.335 579.8C519.357 574.914 526.124 573.414 570.486 567.778C596.043 564.378 602.81 559.462 603.177 545.893V537.608C603.177 518.771 587.779 508.203 559.197 508.203C530.615 508.203 516.668 518.342 513.308 540.671C513.078 542.156 511.795 543.244 510.298 543.244H484.604C482.847 543.244 481.442 541.743 481.549 539.981C482.603 522.385 486.437 511.772 494.915 502.185C508.48 487.483 531.395 479.167 560.328 479.167C608.845 479.167 634.401 498.004 634.401 533.09V649.145C634.401 658.962 640.405 664.613 651.297 664.613C652.412 664.613 653.39 664.613 654.673 664.46C656.475 664.245 658.064 665.685 658.064 667.507V685.211ZM603.177 589.417C603.177 587.227 600.962 585.772 598.946 586.599C590.376 590.122 581.622 591.776 552.827 595.65C518.975 600.567 505.44 611.118 505.44 631.824C505.44 652.529 519.739 663.495 544.165 663.495C562.588 663.495 578.017 657.445 590.788 645.791C600.183 637.107 603.192 630.691 603.192 620.169V589.417H603.177Z" fill="white"/>
<path d="M711.194 487.927V508.066C711.194 511.021 714.952 512.262 716.709 509.873C732.55 488.264 750.362 479.182 776.607 479.182C814.598 479.182 839.025 500.301 839.025 533.105V679.269C839.025 680.954 837.65 682.332 835.97 682.332H810.886C809.206 682.332 807.831 680.954 807.831 679.269V545.525C807.831 521.772 792.036 506.703 767.212 506.703C734.888 506.703 713.822 533.09 713.822 573.414V679.254C713.822 680.938 712.447 682.317 710.767 682.317H685.316C683.636 682.317 682.261 680.938 682.261 679.254V487.927C682.261 486.242 683.636 484.864 685.316 484.864H708.139C709.819 484.864 711.194 486.242 711.194 487.927Z" fill="white"/>
<path d="M1056 685.211C1056 686.62 1055.02 687.86 1053.66 688.182C1044.83 690.357 1040.82 690.969 1034.57 690.969C1016.18 690.969 1006.43 683.863 1003.08 667.385C1002.61 665.087 999.86 664.138 998.088 665.669C977.557 683.373 958.6 690.969 935.334 690.969C895.479 690.969 870.686 668.38 870.686 632.574C870.686 606.953 882.341 589.616 905.271 579.8C917.293 574.914 924.06 573.414 968.422 567.778C993.979 564.378 1000.75 559.462 1001.11 545.893V537.608C1001.11 518.771 985.715 508.203 957.164 508.203C928.613 508.203 914.604 518.342 911.244 540.671C911.014 542.156 909.731 543.244 908.234 543.244H882.54C880.783 543.244 879.378 541.743 879.485 539.981C880.539 522.385 884.373 511.772 892.851 502.185C906.416 487.483 929.331 479.167 958.263 479.167C1006.78 479.167 1032.34 498.004 1032.34 533.09V649.145C1032.34 658.962 1038.34 664.613 1049.23 664.613C1050.35 664.613 1051.33 664.613 1052.61 664.46C1054.41 664.245 1056 665.685 1056 667.507V685.211ZM1001.11 589.417C1001.11 587.227 998.898 585.772 996.882 586.599C988.312 590.122 979.559 591.776 950.763 595.65C916.911 600.567 903.376 611.118 903.376 631.824C903.376 652.529 917.675 663.495 942.101 663.495C960.524 663.495 975.953 657.445 988.724 645.791C998.119 637.107 1001.13 630.691 1001.13 620.169V589.417H1001.11Z" fill="white"/>
<path d="M482.791 171.166C479.993 171.166 477.175 170.552 474.546 169.305C467.686 166.046 463.379 159.064 463.539 151.459L466.47 8.59865C466.574 3.75224 470.569 -0.0927677 475.404 0.00170423L496.408 0.436275C501.242 0.540194 505.078 4.5458 504.984 9.39221L502.939 109.23L591.481 33.4542C595.156 30.3083 600.687 30.7429 603.825 34.4273L617.47 50.4497C620.608 54.1341 620.175 59.6796 616.5 62.8255L495.315 166.537C491.753 169.579 487.305 171.156 482.81 171.156L482.791 171.166Z" fill="white"/>
<path d="M365.515 277.125L359.748 256.871C358.42 252.213 361.115 247.348 365.76 246.016L458.411 219.488L348.384 129.91C344.633 126.858 344.058 121.322 347.112 117.562L360.361 101.209C363.405 97.4493 368.927 96.873 372.677 99.9339L511.408 212.894C516.977 217.429 519.578 224.703 518.137 231.76C516.695 238.817 511.465 244.476 504.557 246.45L376.352 283.162C371.707 284.494 366.854 281.792 365.534 277.135L365.515 277.125Z" fill="white"/>
<path d="M624.877 321.716C620.542 323.861 615.293 322.075 613.154 317.729L536.947 162.852C533.752 156.371 534.45 148.644 538.737 142.834C543.025 137.024 550.187 134.095 557.311 135.257L699.199 158.318C703.967 159.092 707.218 163.599 706.436 168.388L703.072 189.182C702.299 193.962 697.804 197.221 693.026 196.437L588.031 179.366L647.709 300.649C649.849 304.995 648.067 310.257 643.733 312.401L624.886 321.716H624.877Z" fill="white"/>
<path d="M527.43 237.575L469.303 353.49C467.132 357.82 468.873 363.096 473.193 365.273L491.968 374.735C496.287 376.913 501.55 375.167 503.721 370.836L561.848 254.922C564.02 250.591 562.278 245.315 557.959 243.138L539.184 233.676C534.864 231.499 529.602 233.244 527.43 237.575Z" fill="white"/>
</svg>
